<svg xmlns="http://www.w3.org/2000/svg" viewBox="0 0 800 800" fill="none">
  <g transform="translate(0,800) scale(0.1,-0.1)" fill="currentColor" stroke="none">
    <path d="M7158 5503 l-476 -3 -10 -28 c-6 -15 -36 -88 -67 -162 -31 -74 -61
-148 -67 -165 -6 -16 -14 -34 -18 -40 -5 -5 -24 -53 -44 -105 -21 -52 -43
-108 -51 -125 -13 -26 -48 -112 -105 -255 -25 -62 -60 -146 -110 -265 -23 -55
-53 -127 -65 -160 -27 -71 -49 -125 -76 -181 -10 -22 -19 -47 -19 -55 0 -8 -6
-23 -14 -34 -7 -11 -18 -36 -25 -56 -6 -20 -20 -53 -31 -74 -11 -22 -20 -44
-20 -51 0 -6 -16 -47 -36 -90 -20 -44 -45 -101 -56 -129 -40 -100 -57 -142
-103 -255 -26 -63 -58 -142 -71 -174 -64 -158 -84 -142 -213 174 -13 30 -29
68 -38 85 -8 16 -30 70 -50 120 -19 49 -41 101 -48 115 -22 41 -65 138 -65
147 0 4 -21 55 -46 113 -25 58 -57 132 -71 165 -13 33 -31 74 -38 90 -7 17
-28 64 -45 105 -38 88 -62 143 -90 203 -11 24 -20 47 -20 51 0 4 -6 22 -14 39
-33 74 -60 137 -92 217 -19 47 -43 103 -54 125 -10 22 -31 69 -45 105 -15 36
-42 97 -60 135 -18 39 -36 81 -40 95 -4 14 -15 43 -26 65 -31 68 -79 183 -79
190 0 4 -9 20 -21 36 l-20 29 -787 -2 -787 -3 -3 -23 c-5 -36 15 -52 67 -52
208 -1 373 -76 437 -200 l29 -55 0 -275 c0 -227 -3 -279 -15 -300 -8 -14 -22
-45 -30 -70 -22 -66 -41 -63 -80 17 -240 484 -813 456 -1466 -72 -203 -163
-447 -437 -576 -644 -26 -42 -63 -103 -83 -136 -20 -33 -49 -81 -64 -106 -107
-173 -272 -611 -311 -824 -5 -27 -17 -78 -25 -113 -29 -115 -24 -453 9 -576
71 -269 231 -453 457 -525 80 -26 272 -30 341 -7 24 8 61 17 82 21 167 29 441
206 708 457 58 54 259 274 313 342 17 20 43 44 58 52 33 17 34 36 -13 -171
-17 -77 -38 -169 -46 -205 -50 -224 1 -411 130 -478 66 -34 247 -45 310 -18
21 9 46 16 56 16 9 0 44 15 76 33 l59 32 440 3 c477 2 475 2 459 56 -12 39
-25 46 -88 46 -165 0 -340 81 -391 180 -15 28 -14 30 38 91 80 95 90 108 151
196 61 89 65 104 38 131 -82 82 -110 74 -212 -62 -44 -57 -85 -85 -102 -68 -5
5 -7 284 -5 638 l3 629 27 89 c14 48 30 93 35 100 6 6 15 31 21 56 21 88 60
234 69 259 5 14 22 69 37 121 15 52 35 122 45 155 10 33 21 76 25 95 16 82 61
98 87 32 32 -81 87 -210 115 -267 8 -16 30 -70 50 -120 19 -49 39 -94 43 -100
4 -5 25 -53 45 -105 20 -52 41 -99 45 -105 4 -5 20 -41 35 -80 15 -38 40 -97
55 -130 34 -74 61 -135 87 -200 12 -27 41 -97 66 -155 25 -58 57 -134 71 -170
15 -36 36 -83 46 -105 11 -22 31 -69 45 -104 15 -35 35 -80 46 -100 10 -19 19
-41 19 -47 0 -6 20 -55 44 -110 110 -251 136 -312 136 -317 0 -4 18 -44 39
-89 21 -46 53 -117 71 -158 17 -41 37 -88 45 -105 7 -16 27 -61 44 -99 58
-134 85 -113 199 159 12 28 42 98 67 156 25 59 45 110 45 115 0 4 9 26 19 48
48 102 121 275 121 286 0 7 7 24 15 38 13 24 34 75 96 227 12 28 29 67 40 87
10 20 19 43 19 49 0 7 9 31 19 53 47 99 104 234 175 411 20 50 44 108 55 130
39 84 61 136 61 147 0 6 11 34 24 62 24 50 99 224 139 321 11 28 31 73 44 102
13 28 23 56 23 61 0 5 16 45 36 88 20 44 52 120 71 169 19 50 39 95 43 100 4
6 24 51 43 100 44 111 74 182 91 215 7 14 19 43 26 65 7 22 17 45 21 51 5 6
16 35 25 63 15 51 52 90 74 76 7 -4 10 -470 10 -1491 0 -1756 7 -1644 -109
-1767 -61 -64 -126 -87 -281 -99 -148 -11 -162 -17 -158 -62 l3 -31 720 -5
c396 -3 791 -3 878 -1 l157 3 0 54 c0 36 -4 54 -12 54 -63 1 -192 101 -236
185 l-27 50 0 1590 0 1590 28 60 c44 95 125 164 210 180 l37 7 0 54 0 54 -117
0 c-65 0 -147 2 -183 3 -36 2 -279 2 -542 0z m-3415 -475 c17 -14 77 -140 77
-164 0 -35 -102 -48 -120 -15 -11 21 -14 149 -4 175 7 19 24 20 47 4z m-770
-390 c128 -54 196 -133 239 -277 24 -80 36 -364 19 -481 -29 -212 -54 -323
-106 -485 -36 -107 -136 -331 -166 -371 -5 -6 -23 -37 -39 -68 -154 -287 -457
-650 -689 -824 -211 -159 -420 -212 -563 -145 -97 46 -175 131 -224 243 l-29
65 2 213 c1 196 11 308 34 372 5 14 14 48 19 75 9 51 81 276 105 330 33 74 75
174 75 179 0 13 98 210 153 306 261 459 539 742 852 868 75 30 247 30 318 0z
m501 -2130 c17 -64 6 -418 -15 -481 -26 -77 -44 -107 -67 -107 -71 0 -87 124
-37 290 7 25 23 83 35 130 43 166 52 190 65 190 7 0 15 -10 19 -22z"/>
  </g>
</svg>
